<svg id="visual" viewBox="0 0 900 600" width="900" height="600" xmlns="http://www.w3.org/2000/svg" xmlns:xlink="http://www.w3.org/1999/xlink" version="1.1"><rect x="0" y="0" width="900" height="600" fill="#001220"></rect><defs><linearGradient id="grad1_0" x1="33.3%" y1="100%" x2="100%" y2="0%"><stop offset="20%" stop-color="#fbae3c" stop-opacity="1"></stop><stop offset="80%" stop-color="#fbae3c" stop-opacity="1"></stop></linearGradient></defs><defs><linearGradient id="grad1_1" x1="33.3%" y1="100%" x2="100%" y2="0%"><stop offset="20%" stop-color="#fbae3c" stop-opacity="1"></stop><stop offset="80%" stop-color="#96446e" stop-opacity="1"></stop></linearGradient></defs><defs><linearGradient id="grad1_2" x1="33.3%" y1="100%" x2="100%" y2="0%"><stop offset="20%" stop-color="#001220" stop-opacity="1"></stop><stop offset="80%" stop-color="#96446e" stop-opacity="1"></stop></linearGradient></defs><defs><linearGradient id="grad2_0" x1="0%" y1="100%" x2="66.7%" y2="0%"><stop offset="20%" stop-color="#fbae3c" stop-opacity="1"></stop><stop offset="80%" stop-color="#fbae3c" stop-opacity="1"></stop></linearGradient></defs><defs><linearGradient id="grad2_1" x1="0%" y1="100%" x2="66.7%" y2="0%"><stop offset="20%" stop-color="#96446e" stop-opacity="1"></stop><stop offset="80%" stop-color="#fbae3c" stop-opacity="1"></stop></linearGradient></defs><defs><linearGradient id="grad2_2" x1="0%" y1="100%" x2="66.7%" y2="0%"><stop offset="20%" stop-color="#96446e" stop-opacity="1"></stop><stop offset="80%" stop-color="#001220" stop-opacity="1"></stop></linearGradient></defs><g transform="translate(900, 600)"><path d="M-405.6 0C-372.8 -23.7 -340 -47.4 -336.4 -76.8C-332.7 -106.1 -358.4 -141 -362.2 -174.4C-366 -207.8 -348 -239.7 -317.1 -252.9C-286.3 -266.1 -242.7 -260.7 -212 -265.8C-181.3 -271 -163.6 -286.7 -143.2 -297.3C-122.8 -307.9 -99.7 -313.3 -75.4 -330.5C-51.1 -347.7 -25.6 -376.7 0 -405.6L0 0Z" fill="#3d3056"></path><path d="M-270.4 0C-248.5 -15.8 -226.6 -31.6 -224.2 -51.2C-221.8 -70.7 -238.9 -94 -241.5 -116.3C-244 -138.5 -232 -159.8 -211.4 -168.6C-190.9 -177.4 -161.8 -173.8 -141.3 -177.2C-120.9 -180.7 -109 -191.2 -95.5 -198.2C-81.9 -205.3 -66.5 -208.9 -50.3 -220.3C-34.1 -231.8 -17 -251.1 0 -270.4L0 0Z" fill="#e1685e"></path><path d="M-135.2 0C-124.3 -7.9 -113.3 -15.8 -112.1 -25.6C-110.9 -35.4 -119.5 -47 -120.7 -58.1C-122 -69.3 -116 -79.9 -105.7 -84.3C-95.4 -88.7 -80.9 -86.9 -70.7 -88.6C-60.4 -90.3 -54.5 -95.6 -47.7 -99.1C-40.9 -102.6 -33.2 -104.4 -25.1 -110.2C-17 -115.9 -8.5 -125.6 0 -135.2L0 0Z" fill="#fbae3c"></path></g><g transform="translate(0, 0)"><path d="M405.6 0C411.4 34.1 417.1 68.1 393.9 89.9C370.6 111.7 318.4 121.1 300.9 144.9C283.4 168.7 300.6 207 297.9 237.5C295.1 268.1 272.4 291.1 249.4 312.7C226.4 334.3 203.2 354.5 176 365.5C148.8 376.4 117.5 378 87.5 383.1C57.4 388.3 28.7 397 0 405.6L0 0Z" fill="#3d3056"></path><path d="M270.4 0C274.2 22.7 278.1 45.4 262.6 59.9C247.1 74.4 212.3 80.7 200.6 96.6C189 112.5 200.4 138 198.6 158.4C196.7 178.8 181.6 194.1 166.3 208.5C151 222.9 135.5 236.4 117.3 243.6C99.2 250.9 78.3 252 58.3 255.4C38.3 258.9 19.1 264.6 0 270.4L0 0Z" fill="#e1685e"></path><path d="M135.2 0C137.1 11.4 139 22.7 131.3 30C123.5 37.2 106.1 40.4 100.3 48.3C94.5 56.2 100.2 69 99.3 79.2C98.4 89.4 90.8 97 83.1 104.2C75.5 111.4 67.7 118.2 58.7 121.8C49.6 125.5 39.2 126 29.2 127.7C19.1 129.4 9.6 132.3 0 135.2L0 0Z" fill="#fbae3c"></path></g></svg>