<svg xmlns="http://www.w3.org/2000/svg" version="1.1" xmlns:xlink="http://www.w3.org/1999/xlink" viewBox="0 0 700 700" style="overflow: hidden; display: block;" width="700" height="700"><defs><linearGradient id="two-23" x1="350" y1="-350" x2="350" y2="350" spreadMethod="pad" gradientUnits="userSpaceOnUse"><stop offset="0%" stop-color="hsl(50, 98%, 60%)" stop-opacity="1"></stop><stop offset="100%" stop-color="hsl(50, 98%, 80%)" stop-opacity="1"></stop></linearGradient></defs><g id="two-0" transform="matrix(1 0 0 1 0 0)" opacity="1"><path transform="matrix(1 0 0 1 350 350)" id="two-27" d="M 276.595046 34.94208 C 266.907997 44.332503 255.552022 52.798 247.347523 63.508049 C 240.867004 71.967637 235.932066 81.961809 231.577132 91.687873 C 227.305094 101.228801 222.10904 111.219176 221.259178 121.638262 C 220.043957 136.536548 240.866126 157.361253 228.877534 166.289262 C 196.535755 190.374466 148.239239 83.942607 119.360294 112.086777 C 100.304277 130.657947 150.864457 158.748954 153.252328 185.250242 C 154.47333 198.801287 144.348719 211.629242 142.88874 225.156627 C 139.85503 253.265368 173.200256 302.269953 146.234407 310.763934 C 92.947064 327.548932 109.998557 176.295233 54.698691 168.345263 C 46.321895 167.141006 43.564435 183.240783 35.317173 185.139105 C 27.302495 186.983892 18.838748 175.543405 11.242575 178.695621 C -4.17217 185.092341 2.505331 224.992245 -13.999729 222.51931 C -36.689227 219.119767 -6.82549 158.114871 -29.520206 154.750337 C -61.131233 150.063941 -53.086256 218.305033 -77.594829 238.812327 C -88.821206 248.205881 -104.770969 254.607825 -119.380557 253.696595 C -131.011247 252.971165 -139.984999 241.844499 -150.915935 237.80546 C -163.051186 233.32142 -183.614426 240.213766 -188.985476 228.444197 C -204.106986 195.308469 -117.922181 160.153668 -138.661324 130.21165 C -147.77028 117.060648 -177.71549 148.88686 -186.823102 135.734928 C -196.53137 121.715615 -156.532609 105.421598 -163.252835 89.749005 C -168.180111 78.257842 -187.659123 82.75955 -199.590922 79.023636 C -215.263055 74.116601 -240.977554 78.719155 -246.831514 63.375561 C -251.542587 51.027543 -222.543953 41.149905 -226.863436 28.659516 C -235.136404 4.737072 -287.451767 23.00409 -298.012883 0 C -303.261672 -11.432847 -293.87154 -26.480543 -285.765007 -36.100516 C -274.487726 -49.483198 -254.957091 -53.875157 -239.159502 -61.405724 C -225.906207 -67.723449 -212.312892 -74.941331 -198.047007 -78.412357 C -182.609637 -82.168418 -155.912122 -67.728065 -150.076626 -82.505323 C -137.53718 -114.259029 -221.890576 -125.312115 -219.335101 -159.356279 C -218.488688 -170.632241 -196.504862 -170.399085 -192.852704 -181.100743 C -184.98069 -204.16754 -229.429229 -239.239751 -209.372086 -253.087375 C -181.79785 -272.124864 -156.92056 -206.578199 -124.878417 -196.776898 C -114.662925 -193.652103 -102.498279 -200.368611 -92.507076 -196.587542 C -76.130943 -190.390162 -68.945493 -155.581068 -52.536987 -161.69222 C -32.113873 -169.298564 -61.221563 -214.65857 -43.319143 -227.0869 C -35.146593 -232.7605 -22.419602 -225.69567 -13.878573 -220.593597 C -2.648126 -213.884972 -0.872611 -188.16447 11.988709 -190.555081 C 62.321295 -199.910705 13.251642 -341.480279 64.216508 -336.634726 C 95.500358 -333.660372 48.891654 -252.16591 78.803259 -242.531495 C 109.150652 -232.756713 118.929393 -327.357165 146.543205 -311.420165 C 188.866024 -286.994026 70.381426 -200.988803 107.061945 -168.702632 C 120.431385 -156.93486 140.6374 -182.167589 156.833057 -189.5786 C 188.889071 -204.247193 229.872207 -264.145529 252.500668 -237.113911 C 283.176481 -200.469049 177.129908 -167.319481 166.246956 -120.785485 C 164.205161 -112.05505 163.791582 -99.280728 171.071956 -94.047604 C 199.684749 -73.480765 262.286742 -141.707262 276.71956 -109.561025 C 288.386412 -83.575431 233.559626 -70.933435 210.601024 -54.073153 C 193.69097 -41.654789 152.430346 -40.307203 157.030073 -19.837512 C 168.399148 30.757103 296.612784 -49.227759 312.913051 -0.000001 C 318.140862 15.788292 288.536559 23.366225 276.595046 34.94208 Z " fill="url(#two-23)" stroke="undefined" stroke-width="1" stroke-opacity="1" fill-opacity="1" visibility="visible" stroke-linecap="butt" stroke-linejoin="miter" stroke-miterlimit="4"></path></g></svg>