<svg xmlns="http://www.w3.org/2000/svg" version="1.1" xmlns:xlink="http://www.w3.org/1999/xlink" xmlns:svgjs="http://svgjs.dev/svgjs" viewBox="0 0 800 800"><g stroke="hsl(50, 98%, 50%)" fill="none" stroke-linecap="round"><circle r="416" cx="400" cy="400" stroke-width="8" stroke-dasharray="2614 2614" opacity="0.05"></circle><circle r="400" cx="400" cy="400" stroke-width="8" stroke-dasharray="2413 2513" transform="rotate(14, 400, 400)" opacity="0.09"></circle><circle r="384" cx="400" cy="400" stroke-width="8" stroke-dasharray="2220 2413" transform="rotate(29, 400, 400)" opacity="0.13"></circle><circle r="368" cx="400" cy="400" stroke-width="8" stroke-dasharray="2035 2312" transform="rotate(43, 400, 400)" opacity="0.16"></circle><circle r="352" cx="400" cy="400" stroke-width="8" stroke-dasharray="1858 2212" transform="rotate(58, 400, 400)" opacity="0.20"></circle><circle r="336" cx="400" cy="400" stroke-width="8" stroke-dasharray="1689 2111" transform="rotate(72, 400, 400)" opacity="0.24"></circle><circle r="320" cx="400" cy="400" stroke-width="8" stroke-dasharray="1528 2011" transform="rotate(86, 400, 400)" opacity="0.28"></circle><circle r="304" cx="400" cy="400" stroke-width="8" stroke-dasharray="1375 1910" transform="rotate(101, 400, 400)" opacity="0.32"></circle><circle r="288" cx="400" cy="400" stroke-width="8" stroke-dasharray="1230 1810" transform="rotate(115, 400, 400)" opacity="0.35"></circle><circle r="272" cx="400" cy="400" stroke-width="8" stroke-dasharray="1094 1709" transform="rotate(130, 400, 400)" opacity="0.39"></circle><circle r="256" cx="400" cy="400" stroke-width="8" stroke-dasharray="965 1608" transform="rotate(144, 400, 400)" opacity="0.43"></circle><circle r="240" cx="400" cy="400" stroke-width="8" stroke-dasharray="844 1508" transform="rotate(158, 400, 400)" opacity="0.47"></circle><circle r="224" cx="400" cy="400" stroke-width="8" stroke-dasharray="732 1407" transform="rotate(173, 400, 400)" opacity="0.51"></circle><circle r="208" cx="400" cy="400" stroke-width="8" stroke-dasharray="627 1307" transform="rotate(187, 400, 400)" opacity="0.54"></circle><circle r="192" cx="400" cy="400" stroke-width="8" stroke-dasharray="531 1206" transform="rotate(202, 400, 400)" opacity="0.58"></circle><circle r="176" cx="400" cy="400" stroke-width="8" stroke-dasharray="442 1106" transform="rotate(216, 400, 400)" opacity="0.62"></circle><circle r="160" cx="400" cy="400" stroke-width="8" stroke-dasharray="362 1005" transform="rotate(230, 400, 400)" opacity="0.66"></circle><circle r="144" cx="400" cy="400" stroke-width="8" stroke-dasharray="290 905" transform="rotate(245, 400, 400)" opacity="0.70"></circle><circle r="128" cx="400" cy="400" stroke-width="8" stroke-dasharray="225 804" transform="rotate(259, 400, 400)" opacity="0.73"></circle><circle r="112" cx="400" cy="400" stroke-width="8" stroke-dasharray="169 704" transform="rotate(274, 400, 400)" opacity="0.77"></circle><circle r="96" cx="400" cy="400" stroke-width="8" stroke-dasharray="121 603" transform="rotate(288, 400, 400)" opacity="0.81"></circle><circle r="80" cx="400" cy="400" stroke-width="8" stroke-dasharray="80 503" transform="rotate(302, 400, 400)" opacity="0.85"></circle><circle r="64" cx="400" cy="400" stroke-width="8" stroke-dasharray="48 402" transform="rotate(317, 400, 400)" opacity="0.89"></circle><circle r="48" cx="400" cy="400" stroke-width="8" stroke-dasharray="24 302" transform="rotate(331, 400, 400)" opacity="0.92"></circle><circle r="32" cx="400" cy="400" stroke-width="8" stroke-dasharray="8 201" transform="rotate(346, 400, 400)" opacity="0.96"></circle><circle r="16" cx="400" cy="400" stroke-width="8" stroke-dasharray="0 101" transform="rotate(360, 400, 400)" opacity="1.00"></circle></g></svg>