<svg xmlns="http://www.w3.org/2000/svg" version="1.1" xmlns:xlink="http://www.w3.org/1999/xlink" xmlns:svgjs="http://svgjs.dev/svgjs" viewBox="0 0 800 800"><g stroke-width="3" stroke="hsl(0, 0%, 70%)" fill="none" stroke-linecap="round"><path d="M394.76 8.71C401.41 10.35 407.93 12.15 414.32 14.05 420.7 15.88 426.95 17.76 433.05 19.65 439.15 21.37 445.1 23.06 450.92 24.69 459.55 26.78 476.14 30.22 484.11 31.61 492 32.64 507.35 34.43 514.9 35.35 522.53 36.27 538.03 38.89 546.02 40.75 551.56 42.17 557.23 43.87 563.05 45.85 569.09 48 575.33 50.46 581.77 53.24 588.47 56.22 595.39 59.53 602.54 63.15 609.93 66.97 617.52 71.11 625.3 75.54 633.25 80.15 641.32 85.03 649.47 90.16 657.64 95.43 665.77 100.92 673.79 106.59 681.64 112.36 689.23 118.29 696.47 124.34 703.31 130.43 709.64 136.62 715.38 142.88 720.53 149.13 724.96 155.42 728.6 161.74 731.57 168.02 733.73 174.29 735.06 180.56 735.77 186.76 735.76 192.93 735.07 199.08 734.02 205.14 732.52 211.17 730.71 217.17 728.93 223.06 727.15 228.94 725.54 234.79 724.14 243.42 725.68 260.49 729.27 268.99 733.04 274.57 737.74 280.18 743.32 285.83 749.77 291.42 756.86 297.05 764.42 302.74 772.32 308.38 780.24 314.09 787.93 319.88 795.23 325.63 801.8 331.47 807.4 337.41 811.96 343.31 815.18 349.32 816.94 355.45 817.34 361.55 816.22 367.78 813.63 374.13 809.89 380.47 804.99 386.94 799.15 393.54 792.87 400.14 786.23 406.88 779.56 413.77 773.37 420.66 767.83 427.61 763.18 434.63 759.74 441.65 757.49 448.73 756.49 455.88 756.9 463.03 758.47 470.24 761.09 477.5 764.75 484.77 769.05 492.08 773.74 499.44 778.75 506.78 783.62 514.16 788.08 521.56 792.09 528.93 795.25 536.31 797.37 543.67 798.51 551 798.39 558.28 796.99 565.51 794.44 572.67 790.66 579.74 785.73 586.69 779.89 593.55 773.18 600.25 765.77 606.77 757.92 613.14 749.75 619.29 741.43 625.18 733.2 630.88 725.17 636.29 717.48 641.37 710.31 646.21 703.69 650.69 697.68 654.77 679.35 669.24 671.48 676.01 670.57 676.1 663.67 674.73 649.01 676.15 642.36 678.5 637.45 680.85 632.13 683.76 626.44 687.26 620.48 691.48 614.22 696.33 607.69 701.81 600.98 707.99 594.06 714.75 586.98 722.06 579.79 729.91 572.49 738.16 565.12 746.72 557.7 755.54 550.25 764.46 542.79 773.33 535.31 782.1 527.86 790.57 520.44 798.57 513.03 806.08 505.67 812.86 498.37 818.78 491.1 823.86 483.88 827.87 476.73 830.73 469.6 832.53 462.54 833.09 455.54 832.39 448.56 830.64 441.64 827.68 434.78 823.58 427.93 818.66 421.13 812.81 414.39 806.19 407.65 799.16 400.96 791.68 394.32 783.95 387.68 776.36 381.16 768.99 374.76 761.99 368.36 755.66 362.07 750.01 355.9 745.14 349.72 741.26 343.65 738.32 337.69 736.34 331.72 735.46 325.86 735.52 320.11 736.46 314.34 738.39 308.67 741.05 303.1 744.31 297.5 748.25 291.99 752.56 286.57 757.07 281.12 761.87 275.74 766.61 270.43 771.13 265.06 775.52 259.76 779.46 254.51 782.82 246.54 786.79 230.63 789.71 222.64 788.4 217.23 786.47 211.81 783.63 206.38 779.91 200.86 775.48 195.32 770.26 189.78 764.32 184.15 757.8 178.52 750.69 172.9 743.08 167.21 735.09 161.54 726.74 155.92 718.12 150.26 709.33 144.68 700.42 139.18 691.45 133.7 682.49 128.33 673.6 123.11 664.82 117.96 656.2 112.97 647.78 108.18 639.58 103.5 631.64 99.02 623.96 94.77 616.55 90.64 609.45 86.75 602.62 83.08 596.07 79.53 589.82 76.2 583.82 73.08 578.05 68.62 569.91 60.58 554.83 56.9 547.76 53.28 541.02 46.29 527.87 42.87 521.33 39.36 514.85 32.5 501.52 29.19 494.58 25.92 487.54 20.01 472.69 17.47 464.86 15.17 456.84 11.69 439.94 10.54 431.05 9.92 425.05 9.52 418.89 9.33 412.56 9.2 406.23 9.27 399.73 9.54 393.08 9.83 386.43 10.3 379.7 10.93 372.91 11.55 366.13 12.31 359.28 13.2 352.4 14.04 345.52 14.99 338.6 16.05 331.66 17.03 324.74 18.12 317.79 19.29 310.84 20.39 303.92 21.59 296.99 22.88 290.08 24.13 283.21 25.49 276.37 26.99 269.56 28.47 262.8 30.12 256.1 31.93 249.47 33.78 242.9 35.83 236.41 38.09 230.02 40.44 223.71 43.01 217.52 45.8 211.45 48.7 205.48 51.83 199.66 55.19 194 58.63 188.45 62.27 183.07 66.11 177.88 69.99 172.81 74.03 167.93 78.19 163.26 82.35 158.71 86.6 154.37 90.92 150.25 97.33 144.33 110.11 133.67 116.42 128.89 122.54 124.37 134.56 116.1 140.51 112.27 146.35 108.45 158.2 100.92 164.3 97.1 170.49 93.02 183.55 84.34 190.48 79.69 195.2 76.36 200.09 72.95 205.13 69.46 210.25 65.79 215.53 62.06 220.96 58.28 226.47 54.36 232.12 50.44 237.92 46.53 243.79 42.55 249.78 38.63 255.89 34.82 262.06 31.02 268.34 27.37 274.7 23.93 281.11 20.58 287.6 17.49 294.14 14.68 300.73 12.05 307.36 9.74 314.03 7.8 320.73 6.08 327.46 4.74 334.19 3.79 340.95 3.08 347.71 2.75 354.46 2.81 361.22 3.08 367.97 3.7 374.69 4.65 381.41 5.74 388.11 7.1 394.75 8.71" stroke-dasharray="9 53" transform="rotate(0, 400, 400)" opacity="1.00"></path><path d="M388.08 23.62C394.38 25.31 400.57 27.15 406.66 29.1 412.74 30.97 418.72 32.89 424.6 34.82 430.48 36.59 436.25 38.33 441.93 40.02 450.4 42.2 466.94 45.81 475.04 47.27 483.15 48.35 499.31 50.15 507.44 51 515.76 51.79 532.9 53.96 541.83 55.5 547.99 56.66 554.29 58.06 560.75 59.73 567.4 61.53 574.21 63.61 581.19 65.99 588.34 68.55 595.65 71.42 603.1 74.59 610.67 77.96 618.34 81.63 626.07 85.6 633.82 89.75 641.54 94.18 649.19 98.87 656.71 103.72 664.04 108.8 671.11 114.09 677.89 119.51 684.27 125.11 690.19 130.86 695.65 136.69 700.54 142.65 704.79 148.71 708.47 154.81 711.47 160.98 713.73 167.2 715.44 173.43 716.45 179.68 716.8 185.96 716.72 192.19 716.1 198.43 715.03 204.67 713.82 210.84 712.39 217.01 710.86 223.15 709.57 229.22 708.45 235.28 707.66 241.31 707.5 247.27 707.9 253.21 708.98 259.14 710.95 264.99 713.73 270.83 717.35 276.68 721.9 282.46 727.23 288.25 733.26 294.06 739.96 299.81 747.11 305.58 754.53 311.4 762.1 317.16 769.54 322.97 776.63 328.84 783.23 334.67 789.05 340.56 793.89 346.52 797.71 352.46 800.27 358.48 801.47 364.58 801.44 370.67 800.04 376.85 797.31 383.13 793.58 389.4 788.83 395.78 783.25 402.26 777.3 408.74 771.04 415.34 764.75 422.05 758.9 428.76 753.62 435.51 749.12 442.29 745.7 449.08 743.34 455.9 742.1 462.75 742.14 469.6 743.26 476.48 745.34 483.37 748.43 490.26 752.17 497.15 756.34 504.05 760.93 510.93 765.49 517.79 769.81 524.63 773.85 531.44 777.22 538.2 779.76 544.89 781.51 551.53 782.17 558.08 781.68 564.53 780.19 570.89 777.53 577.12 773.77 583.19 769.1 589.14 763.51 594.9 757.13 600.44 750.19 605.83 742.75 610.97 734.99 615.84 727.11 620.52 719.21 624.9 711.44 628.95 703.96 632.79 696.83 636.29 690.14 639.41 681.23 643.6 667.22 649.81 662.08 651.86 649.97 654.87 642.12 656.93 638.7 658.73 634.55 661.64 623.83 670.63 617.31 676.9 612.59 681.9 607.53 687.44 602.16 693.52 596.59 700.18 590.75 707.3 584.69 714.84 578.48 722.78 572.08 730.98 565.54 739.37 558.89 747.89 552.15 756.38 545.32 764.73 538.43 772.88 531.5 780.65 524.55 787.91 517.56 794.63 510.58 800.62 503.6 805.76 496.63 810.09 489.67 813.41 482.75 815.64 475.84 816.91 468.96 817.03 462.13 816.01 455.32 814.03 448.54 810.97 441.82 806.9 435.11 802.09 428.45 796.46 421.84 790.13 415.24 783.45 408.68 776.36 402.18 769.04 395.67 761.85 389.29 754.84 383.03 748.16 376.76 742.07 370.61 736.56 364.57 731.75 358.51 727.83 352.57 724.73 346.73 722.49 337.98 721.06 320.93 723.68 312.6 727.34 307.03 730.66 301.54 734.37 296.11 738.35 290.63 742.67 285.2 747.02 279.82 751.26 274.39 755.49 268.98 759.4 263.61 762.86 255.45 767.27 239.06 771.95 230.82 771.93 225.24 770.99 219.66 769.22 214.07 766.63 208.41 763.39 202.75 759.38 197.11 754.65 191.4 749.34 185.72 743.41 180.07 736.93 174.39 730.01 168.78 722.67 163.23 714.96 157.7 706.99 152.27 698.78 146.95 690.41 141.7 681.95 136.6 673.42 131.66 664.9 126.82 656.42 122.17 648.03 117.73 639.76 113.4 631.64 109.3 623.69 105.42 615.94 101.67 608.41 98.14 601.1 94.83 594.01 91.62 587.16 88.61 580.54 85.79 574.13 83.03 567.96 80.43 561.99 77.98 556.19 74.35 547.9 67.49 532.24 64.17 524.76 60.75 517.54 53.93 503.35 50.53 496.28 47.06 489.25 40.41 474.9 37.33 467.52 34.39 460.05 29.47 444.5 27.56 436.4 25.99 428.15 24.14 410.95 23.86 401.99 23.81 395.97 23.97 389.81 24.34 383.52 24.74 377.22 25.32 370.87 26.04 364.48 26.75 358.09 27.58 351.65 28.53 345.19 29.42 338.74 30.39 332.26 31.44 325.78 32.41 319.31 33.46 312.84 34.56 306.38 35.59 299.95 36.69 293.54 37.86 287.16 38.98 280.82 40.2 274.52 41.54 268.29 42.86 262.1 44.33 255.98 45.95 249.95 47.61 243.99 49.47 238.12 51.53 232.37 53.67 226.69 56.04 221.14 58.63 215.73 61.34 210.4 64.28 205.23 67.44 200.23 72.46 192.94 83.62 179.42 89.67 173.2 95.88 167.3 108.74 156.58 115.27 151.72 121.7 147.1 134.4 138.64 140.64 134.73 146.68 130.85 158.57 123.32 164.46 119.56 170.26 115.61 182.04 107.31 188.09 102.9 194.23 98.13 207.11 87.93 213.89 82.52 218.5 78.72 223.25 74.88 228.13 71.02 233.07 67.03 238.15 63.06 243.37 59.13 248.63 55.15 254.03 51.26 259.55 47.5 265.12 43.76 270.81 40.21 276.59 36.86 282.42 33.63 288.34 30.66 294.34 27.99 300.37 25.5 306.47 23.34 312.62 21.53 318.81 19.96 325.03 18.75 331.29 17.93 337.57 17.35 343.87 17.13 350.18 17.3 356.5 17.66 362.83 18.36 369.15 19.39 375.47 20.54 381.78 21.96 388.07 23.62" stroke-dasharray="6 6" transform="rotate(7.88, 400, 400)" opacity="0.96"></path><path d="M384.14 38.53C390.12 40.26 396.04 42.13 401.91 44.11 407.77 46.02 413.57 47.98 419.31 49.95 425.06 51.77 430.75 53.55 436.39 55.3 444.86 57.56 461.67 61.36 470.05 62.9 478.51 64.06 495.63 65.93 504.36 66.76 510.3 67.21 516.32 67.73 522.43 68.35 534.98 69.52 548.01 71.37 561.53 74.02 575.49 77.11 589.86 81.28 604.47 86.57 619.09 92.58 633.47 99.74 647.19 107.98 660.02 116.9 671.42 126.75 680.91 137.37 688.6 148.41 693.91 160.01 696.71 172.01 697.85 184.13 697.08 196.46 694.96 208.9 693.03 221.23 691.43 233.58 691.11 245.89 693.46 257.98 698.45 270.04 706.36 282.06 711.51 288 717.28 293.93 723.58 299.87 730.36 305.75 737.41 311.66 744.55 317.58 751.7 323.45 758.58 329.36 765 335.3 770.89 341.2 775.96 347.15 780.06 353.14 783.2 359.1 785.15 365.13 785.84 371.21 785.44 377.27 783.79 383.41 780.97 389.61 777.29 395.8 772.69 402.06 767.38 408.41 761.76 414.75 755.86 421.17 749.94 427.67 744.42 434.17 739.39 440.67 735.06 447.18 731.68 453.68 729.24 460.18 727.79 466.68 727.5 473.17 728.19 479.64 729.78 486.1 732.32 492.54 735.51 498.95 739.16 505.32 743.29 511.66 747.49 517.94 751.58 524.15 755.54 530.33 759.01 536.41 761.82 542.39 764.66 551.2 764.22 567.98 760.75 575.86 752.87 585.91 741.63 595.05 728.04 603.1 713.34 610.56 698.32 616.8 683.93 621.75 671.05 626.11 659.94 629.25 650.75 631.25 641.13 633.54 630.07 636.41 625.77 639.07 622.84 642.63 618.91 647.54 613.8 654.11 608.01 662.9 600.87 673.58 592.46 686.1 583.33 700.41 573.11 715.89 562.03 731.95 556.32 740.05 550.43 748.03 544.41 755.78 538.31 763.26 532.1 770.31 525.8 776.81 519.45 782.76 513.04 787.97 506.59 792.36 500.11 795.98 493.6 798.65 487.09 800.31 480.56 801.09 474.04 800.83 467.52 799.52 461 797.37 454.5 794.24 448.03 790.21 441.55 785.53 435.11 780.12 428.69 774.09 422.27 767.75 415.89 761.05 409.54 754.13 403.18 747.33 396.94 740.68 390.79 734.32 384.64 728.47 378.58 723.13 372.62 718.39 366.65 714.44 360.77 711.23 354.97 708.77 346.29 706.83 329.24 707.95 320.85 710.73 315.24 713.44 309.67 716.56 304.16 719.97 298.59 723.78 293.06 727.69 287.55 731.58 281.99 735.56 276.45 739.32 270.92 742.77 259.69 748.97 248.47 752.98 237.28 754.39 225.85 753.6 214.47 749.84 203.2 743.25 191.86 734.47 180.76 723.34 170.03 710.33 159.52 696.04 149.57 680.68 140.33 664.74 131.55 648.58 123.59 632.49 116.51 616.75 109.88 601.52 104.03 586.93 98.91 573.05 93.9 559.92 89.35 547.47 85.13 535.62 80.61 524.42 76.21 513.63 71.89 503.12 68.41 495.49 61.48 480.43 58.1 472.92 54.74 465.45 48.66 450.3 46.04 442.57 43.71 434.78 40.28 418.74 39.23 410.48 38.58 402.11 38.56 384.84 39.15 375.94 39.65 369.98 40.31 363.98 41.12 357.97 41.92 351.96 42.82 345.94 43.82 339.9 44.76 333.88 45.76 327.86 46.82 321.85 47.79 315.85 48.81 309.88 49.88 303.93 50.85 298.02 51.87 292.14 52.95 286.31 54.51 277.66 58.07 260.79 60.16 252.61 61.64 247.25 63.29 242 65.13 236.87 69.07 226.81 73.93 217.3 79.7 208.42 85.93 199.83 93.02 191.9 100.85 184.67 108.88 177.65 117.38 171.28 126.17 165.52 134.76 159.78 143.42 154.48 152.06 149.55 160.25 144.32 168.37 139.22 176.47 134.14 184.14 128.45 191.91 122.59 199.85 116.49 207.59 109.63 215.66 102.5 224.11 95.15 232.57 87.21 241.51 79.26 250.93 71.47 255.68 67.53 260.55 63.7 265.54 60.01 270.56 56.37 275.7 52.93 280.94 49.71 286.21 46.62 291.59 43.8 297.05 41.28 302.54 38.95 308.11 36.95 313.76 35.29 322.29 33.34 339.66 31.61 348.47 31.82 354.36 32.27 360.28 33.05 366.23 34.14 372.18 35.36 378.15 36.83 384.13 38.53" stroke-dasharray="51 15" transform="rotate(15.76, 400, 400)" opacity="0.92"></path><path d="M383.84 53.44C389.56 55.2 395.27 57.1 400.97 59.1 406.66 61.04 412.34 63.02 418.01 65.02 429.36 68.57 440.71 71.96 452.07 75.06 463.56 77.29 475.17 79.22 486.97 80.91 499.01 81.9 511.35 82.9 524.01 84.09 536.98 85.05 550.29 86.56 563.88 88.75 577.62 91.24 591.43 94.69 605.07 99.16 618.34 104.25 630.95 110.44 642.5 117.68 652.93 125.58 661.73 134.45 668.57 144.13 673.81 154.32 676.96 165.15 678.1 176.49 678.21 188.06 677.1 199.97 675.39 212.08 674.48 224.22 674.44 236.45 676.02 248.71 680.25 260.86 686.96 273.01 696.16 285.13 707.82 297.1 720.92 309.08 734.4 321.05 747.38 332.91 758.3 344.82 765.93 356.8 769.96 368.72 769.49 380.76 764.62 392.95 760.99 399.03 756.57 405.16 751.53 411.32 746.23 417.49 740.69 423.7 735.13 429.95 729.93 436.2 725.16 442.42 720.99 448.61 717.67 454.79 715.17 460.93 713.55 467.02 713.42 479.19 716.59 491.14 722.21 502.77 729.83 514.29 737.41 525.41 743.63 535.99 748.07 546.34 749.2 556.03 746.67 564.91 740.98 573.42 731.93 581 720.27 587.54 707.04 593.64 692.84 598.65 678.56 602.58 665.07 606.18 652.75 608.85 641.93 610.71 632.99 612.68 625.62 614.25 619.58 615.72 615.02 618.02 611.12 620.81 607.45 624.45 604.26 629.68 600.61 636.28 596.23 644.44 591.59 654.53 585.9 666.22 579.13 679.35 571.84 693.82 563.5 709 554.23 724.33 544.53 739.39 534.08 753.29 523.05 765.25 511.78 775.01 500.1 781.67 488.15 784.75 476.11 784.64 463.91 780.82 451.63 773.52 445.49 768.99 439.34 763.81 433.18 758.07 427.02 752.07 420.86 745.75 414.7 739.22 408.54 732.81 402.46 726.51 396.44 720.45 390.42 714.85 384.47 709.69 378.58 705.05 366.79 697.92 355.22 693.47 343.86 691.75 332.41 693.16 321.11 696.76 309.92 701.98 298.59 708.86 287.32 715.99 276.09 722.64 264.7 728.92 253.35 733.48 242.05 735.92 230.67 736.6 219.41 734.66 208.36 730.14 197.41 723.6 186.81 714.75 176.71 703.93 166.93 691.71 157.8 678.16 149.43 663.71 141.53 648.73 134.44 633.46 128.18 618.2 122.27 603.11 117.05 588.38 112.44 574.15 107.82 560.42 103.53 547.25 99.47 534.64 95.03 522.56 90.64 510.92 86.28 499.65 81.47 488.78 76.78 478.1 72.31 467.54 67.71 457.19 63.61 446.81 60.19 436.32 57.06 425.92 54.83 415.32 53.59 404.49 53.03 396.35 53.25 379.73 53.96 371.26 54.92 362.76 57.53 345.8 59.07 337.36 60.95 326.15 63.02 315.06 65.21 304.16 66.97 293.35 68.92 282.8 71.13 272.59 73.17 262.53 75.74 252.89 78.95 243.74 82.43 234.79 86.79 226.38 92.04 218.57 97.78 210.94 104.4 203.91 111.81 197.48 119.54 191.14 127.82 185.31 136.51 179.96 145.13 174.49 153.9 169.32 162.72 164.38 171.17 159.03 179.57 153.71 187.91 148.31 195.82 142.28 203.72 136.03 211.68 129.53 219.34 122.33 227.19 114.91 235.3 107.33 243.28 99.28 251.62 91.3 260.35 83.57 269.09 75.86 278.26 68.76 287.85 62.5 297.48 56.81 307.52 52.29 317.91 49.09 328.34 46.78 339.08 45.87 350.09 46.39 358.39 47.35 375.26 50.95 383.83 53.43" stroke-dasharray="36 31" transform="rotate(23.64, 400, 400)" opacity="0.89"></path><path d="M387.24 68.35C398.29 71.91 409.42 75.89 420.61 80.05 431.84 83.68 443.2 87.16 454.69 90.38 466.29 92.76 478.1 94.85 490.12 96.67 502.31 97.77 514.76 98.82 527.43 99.97 540.22 100.81 553.16 102.06 566.11 103.87 578.93 105.86 591.49 108.67 603.52 112.39 614.93 116.61 625.37 121.86 634.53 128.1 642.54 134.95 648.91 142.77 653.46 151.43 656.78 160.62 658.42 170.52 658.62 181.01 658.4 191.82 657.62 203.07 656.85 214.61 657.31 226.29 659 238.16 662.43 250.12 668.37 262.09 676.47 274.09 686.6 286.1 698.56 298.04 711.35 309.97 723.99 321.88 735.73 333.72 745.23 345.56 751.5 357.41 754.43 369.21 753.3 381.05 748.25 392.92 740.65 404.78 730.9 416.69 720.32 428.63 711.04 440.56 703.79 452.23 699.38 463.58 698.64 474.91 700.9 485.86 705.5 496.39 712.18 506.8 719.16 516.7 725.29 525.97 730.23 535.04 732.48 543.39 731.59 550.93 727.9 558.19 721.02 564.56 711.41 570 699.97 575.17 687.06 579.44 673.49 582.85 660.06 586.18 647.17 588.86 635.27 591.07 624.79 593.62 615.66 596.09 607.8 598.76 601.41 602.38 595.92 606.69 591.02 611.95 586.91 618.73 582.8 626.8 578.4 636.26 574.1 647.33 569.13 659.68 563.37 673.08 557.33 687.38 550.4 702.01 542.62 716.42 534.5 730.26 525.59 742.75 516.02 753.21 506.21 761.53 495.86 766.9 485.08 768.96 474.19 768.17 462.97 764.05 451.5 756.83 440.01 747.69 428.33 736.6 416.49 724.32 404.66 712.43 392.96 701.33 381.41 691.73 369.84 684.57 358.39 679.74 347.04 677.35 335.65 677.8 324.32 680.31 313.05 684.41 301.71 690.22 290.4 696.5 279.15 702.62 267.83 708.72 256.6 713.56 245.49 716.71 234.43 718.52 223.59 718.09 213.08 715.38 202.77 710.9 192.93 704.21 183.67 695.56 174.79 685.49 166.61 673.93 159.19 661.25 152.2 647.82 145.97 633.8 140.48 619.48 135.23 605.05 130.54 590.7 126.32 576.59 121.98 562.75 117.85 549.31 113.85 536.3 109.41 523.69 104.96 511.49 100.52 499.67 95.64 488.19 90.87 476.99 86.34 466 81.73 455.23 77.65 444.55 74.27 433.93 71.22 423.4 69.09 412.83 67.96 402.2 67.3 391.59 67.59 380.87 68.77 370.04 70.11 359.22 72 348.55 74.28 338.07 76.25 327.61 78.36 317.37 80.56 307.41 82.28 297.51 84.12 287.94 86.15 278.77 87.95 269.69 90.2 261.06 93.01 252.92 96.04 244.89 99.87 237.39 104.56 230.42 109.73 223.54 115.8 217.17 122.69 211.29 129.98 205.38 137.91 199.87 146.34 194.69 154.84 189.28 163.61 184.05 172.52 178.93 181.17 173.33 189.83 167.68 198.44 161.89 206.66 155.47 214.84 148.82 223 141.95 230.82 134.46 238.72 126.8 246.75 119.06 254.57 110.98 262.64 103.05 270.99 95.46 279.26 87.98 287.87 81.18 296.85 75.26 305.81 69.95 315.15 65.79 324.86 62.93 334.57 60.93 344.64 60.29 355.05 61 365.45 62.39 376.18 64.89 387.23 68.34" stroke-dasharray="33 25" transform="rotate(31.52, 400, 400)" opacity="0.85"></path><path d="M393.57 83.25C404.28 86.85 415.15 90.84 426.16 95.02 437.21 98.72 448.43 102.28 459.83 105.62 471.3 108.16 482.97 110.41 494.81 112.39 506.71 113.64 518.76 114.79 530.85 115.96 542.9 116.75 554.86 117.84 566.56 119.36 577.93 120.95 588.75 123.22 598.79 126.27 608.11 129.71 616.3 134.08 623.16 139.35 628.99 145.17 633.35 151.92 636.19 159.5 638.22 167.61 639.07 176.47 639.03 185.96 639.12 195.84 639.17 206.22 639.72 216.98 641.75 227.96 645.17 239.22 650.31 250.65 657.68 262.16 666.83 273.78 677.5 285.43 689.42 297.1 701.63 308.77 713.25 320.41 723.68 332.04 731.78 343.65 736.77 355.2 738.72 366.74 737.02 378.25 731.87 389.7 724.57 401.15 715.4 412.55 705.52 423.85 696.78 435.16 689.8 446.09 685.27 456.6 684 467.08 685.42 477.09 689.05 486.59 694.76 495.99 701.03 504.81 706.88 512.97 712.06 520.98 715.12 528.27 715.57 534.79 713.66 541.13 708.8 546.69 701.28 551.48 691.81 556.14 680.55 560.12 668.17 563.49 655.4 566.97 642.6 570.08 630.25 572.99 618.81 576.43 608.36 580.03 598.97 584.02 590.88 589.03 583.74 594.81 577.36 601.55 571.92 609.67 566.8 618.94 561.77 629.37 557.12 641.08 552.16 653.74 546.73 667.08 541.28 680.94 535.17 694.78 528.37 708.09 521.38 720.63 513.67 731.68 505.3 740.68 496.75 747.63 487.6 751.81 477.93 752.96 468.15 751.59 457.93 747.24 447.33 740.15 436.7 731.41 425.74 720.94 414.5 709.41 403.25 698.22 392.01 687.69 380.79 678.42 369.58 671.28 358.38 666.16 347.21 663.18 336.04 662.77 324.88 664.25 313.76 667.27 302.64 672 291.56 677.36 280.57 682.81 269.62 688.53 258.81 693.37 248.22 696.94 237.77 699.55 227.64 700.31 217.93 699.1 208.5 696.41 199.61 691.69 191.34 685.11 183.47 677.17 176.28 667.67 169.82 656.91 163.71 645.28 158.25 632.83 153.43 619.82 148.71 606.49 144.42 592.97 140.46 579.45 136.27 565.99 132.2 552.72 128.16 539.75 123.65 527 119.1 514.59 114.54 502.53 109.58 490.71 104.75 479.19 100.2 467.94 95.61 456.87 91.58 445.99 88.28 435.28 85.35 424.65 83.35 414.12 82.35 403.65 81.84 393.22 82.27 382.81 83.58 372.43 85.05 362.06 87.07 351.96 89.43 342.15 91.5 332.34 93.67 322.85 95.89 313.71 97.61 304.59 99.39 295.86 101.29 287.55 102.91 279.28 104.88 271.46 107.33 264.12 109.92 256.81 113.25 249.98 117.36 243.61 121.92 237.23 127.37 231.27 133.64 225.7 140.36 219.98 147.79 214.55 155.82 209.34 164.03 203.82 172.62 198.37 181.46 192.93 190.19 187 199 180.94 207.83 174.73 216.34 167.92 224.83 160.91 233.28 153.71 241.39 145.99 249.52 138.18 257.7 130.37 265.62 122.33 273.68 114.54 281.94 107.17 290.03 100 298.4 93.55 307.05 88.01 315.63 83.1 324.54 79.34 333.81 76.83 343.03 75.15 352.63 74.76 362.59 75.65 372.53 77.19 382.86 79.77 393.56 83.25" stroke-dasharray="46 2" transform="rotate(39.400000000000006, 400, 400)" opacity="0.81"></path><path d="M401.38 98.16C411.77 101.77 422.33 105.76 433.03 109.94 443.76 113.68 454.65 117.33 465.67 120.76 476.72 123.46 487.89 125.88 499.11 128.03 510.3 129.46 521.46 130.75 532.49 132 543.33 132.82 553.87 133.83 563.92 135.17 573.54 136.45 582.44 138.29 590.41 140.78 597.68 143.55 603.83 147.12 608.74 151.5 612.87 156.35 615.8 162.05 617.6 168.56 619.02 175.55 619.74 183.3 620.09 191.71 620.98 200.52 622.25 209.88 624.31 219.69 627.94 229.78 632.97 240.2 639.57 250.87 648.01 261.7 657.83 272.69 668.67 283.77 680.23 294.91 691.64 306.1 702.1 317.28 711.2 328.48 717.95 339.66 721.76 350.76 722.84 361.87 720.67 372.91 715.5 383.83 708.51 394.76 699.92 405.57 690.71 416.2 682.52 426.84 675.81 437.03 671.22 446.74 669.49 456.42 670.15 465.59 672.86 474.19 677.61 482.73 683.1 490.67 688.51 497.97 693.68 505.17 697.26 511.71 698.74 517.58 698.32 523.36 695.29 528.51 689.76 533.04 682.31 537.61 672.93 541.7 662.1 545.41 650.49 549.38 638.37 553.22 626.2 557.08 614.44 561.57 603.25 566.38 592.81 571.71 583.37 578.04 574.78 585.14 566.96 593.15 560.06 602.33 553.68 612.47 547.62 623.53 542.12 635.53 536.61 648.16 530.94 661.13 525.45 674.3 519.56 687.16 513.19 699.26 506.79 710.44 499.82 720.05 492.27 727.65 484.63 733.31 476.42 736.42 467.67 736.76 458.84 734.9 449.52 730.39 439.75 723.47 429.95 715.16 419.75 705.31 409.17 694.5 398.59 684 387.91 674.03 377.19 665.12 366.47 658.05 355.72 652.72 344.95 649.24 334.21 648.07 323.48 648.61 312.79 650.6 302.15 654.26 291.59 658.65 281.18 663.33 270.88 668.5 260.8 673.12 251 676.81 241.42 679.92 232.23 681.53 223.52 681.51 215.12 680.3 207.28 677.3 200.07 672.58 193.21 666.63 186.97 659.15 181.39 650.36 176.05 640.65 171.25 629.97 166.93 618.55 162.6 606.65 158.56 594.33 154.73 581.8 150.58 569.15 146.45 556.49 142.3 543.96 137.68 531.5 133 519.26 128.32 507.28 123.29 495.46 118.43 483.9 113.88 472.61 109.36 461.46 105.42 450.53 102.23 439.84 99.46 429.22 97.61 418.77 96.76 408.49 96.4 398.24 96.96 388.12 98.38 378.14 99.98 368.16 102.09 358.55 104.54 349.3 106.69 340.05 108.94 331.17 111.19 322.69 112.94 314.21 114.71 306.13 116.53 298.48 118.02 290.84 119.78 283.61 121.92 276.82 124.12 270.01 126.96 263.6 130.51 257.59 134.44 251.47 139.22 245.69 144.81 240.18 150.86 234.46 157.66 228.93 165.12 223.51 172.87 217.73 181.1 211.95 189.69 206.12 198.3 199.8 207.09 193.34 215.99 186.71 224.69 179.56 233.41 172.24 242.12 164.78 250.54 156.93 258.96 149.05 267.4 141.28 275.57 133.39 283.81 125.82 292.17 118.74 300.33 111.94 308.68 105.9 317.25 100.78 325.7 96.31 334.43 92.95 343.45 90.8 352.41 89.43 361.71 89.29 371.36 90.36 380.98 92.02 390.98 94.66 401.37 98.16" stroke-dasharray="43 33" transform="rotate(47.28, 400, 400)" opacity="0.77"></path><path d="M408.87 113.07C418.91 116.67 429.07 120.64 439.31 124.81 449.56 128.58 459.9 132.28 470.26 135.81 480.61 138.65 490.95 141.24 501.19 143.57 511.33 145.2 521.28 146.67 530.92 148.05 540.3 148.95 549.2 149.98 557.48 151.21 565.32 152.31 572.36 153.84 578.47 155.89 586.27 159.54 596.13 170.91 598.64 178.76 600.08 184.66 601.26 191.29 602.46 198.58 604.49 206.25 607.16 214.51 610.77 223.25 615.89 232.29 622.29 241.73 630 251.46 639.16 261.4 649.26 271.56 659.92 281.86 670.86 292.27 681.28 302.77 690.5 313.29 698.27 323.87 703.74 334.43 706.48 344.92 706.8 355.45 704.26 365.89 699.12 376.18 692.48 386.5 684.47 396.65 675.9 406.6 668.24 416.54 661.83 426.02 657.22 435.01 655.1 443.97 655.1 452.41 656.95 460.3 660.76 468.15 665.42 475.44 670.26 482.15 677.12 491.87 681.26 508.56 676.81 515.75 671.33 520.54 663.88 525.04 654.84 529.37 644.76 534.07 633.8 538.81 622.37 543.73 610.93 549.31 599.63 555.32 588.72 561.88 578.46 569.35 568.82 577.55 559.83 586.52 551.63 596.45 543.99 607.12 536.79 618.45 530.2 630.41 523.81 642.7 517.48 655.05 511.47 667.32 505.31 679.05 498.9 689.86 492.58 699.65 485.88 707.86 478.75 714.12 471.61 718.6 464 720.73 455.91 720.39 447.79 718.12 439.2 713.52 430.16 706.81 421.1 698.93 411.61 689.69 401.73 679.59 391.86 669.77 381.84 660.36 371.75 651.83 361.67 644.88 351.54 639.4 341.4 635.52 331.3 633.67 321.23 633.36 311.24 634.39 301.34 637.02 291.57 640.43 282 644.26 272.59 648.74 263.45 652.95 254.66 656.54 246.12 659.84 238 662 230.38 662.83 223.05 662.78 216.26 661.19 210.06 658.08 204.13 653.92 198.74 648.31 193.89 641.41 189.15 633.62 184.83 624.78 180.86 615.09 176.74 604.83 172.8 593.99 168.96 582.76 164.74 571.27 160.49 559.59 156.18 547.86 151.41 536.09 146.6 524.38 141.81 512.84 136.74 501.34 131.89 490.05 127.39 478.98 122.98 467.99 119.19 457.23 116.16 446.7 113.56 436.24 111.89 425.98 111.19 415.94 110.98 405.92 111.67 396.1 113.19 386.48 114.89 376.87 117.08 367.67 119.59 358.88 121.83 350.08 124.14 341.68 126.45 333.7 128.26 325.69 130.05 318.09 131.84 310.9 133.25 303.67 134.86 296.83 136.75 290.37 138.62 283.82 141.03 277.62 144.05 271.72 147.38 265.67 151.48 259.85 156.35 254.23 161.66 248.35 167.74 242.56 174.5 236.82 181.62 230.71 189.3 224.55 197.43 218.3 205.7 211.59 214.27 204.75 223.03 197.76 231.73 190.34 240.52 182.8 249.35 175.2 257.99 167.3 266.65 159.48 275.31 151.83 283.76 144.18 292.24 136.93 300.78 130.22 309.13 123.85 317.61 118.27 326.22 113.61 334.71 109.58 343.41 106.63 352.33 104.85 361.18 103.79 370.31 103.89 379.72 105.11 389.11 106.88 398.82 109.57 408.86 113.07" stroke-dasharray="15 14" transform="rotate(55.160000000000004, 400, 400)" opacity="0.73"></path><path d="M414.32 127.98C423.96 131.55 433.6 135.48 443.23 139.61 452.86 143.4 462.45 147.14 471.94 150.74 481.39 153.72 490.68 156.47 499.73 158.98 508.66 160.83 517.24 162.5 525.38 164.05 533.26 165.1 540.57 166.2 547.21 167.43 556.21 169.11 569.63 174.47 574.07 178.59 577.62 183.71 583.28 197.86 586.67 206.83 589.99 213.37 594.08 220.49 599.11 228.11 605.48 236.03 612.93 244.37 621.38 253.06 630.86 261.97 640.9 271.15 651.07 280.51 661.16 290.02 670.46 299.67 678.41 309.37 684.88 319.15 689.16 328.96 690.95 338.71 690.62 348.52 687.81 358.25 682.76 367.85 676.48 377.47 669.03 386.94 661.09 396.2 653.95 405.46 647.86 414.27 643.27 422.62 640.84 430.96 640.24 438.81 641.31 446.17 644.21 453.52 648.02 460.38 652.2 466.75 656.75 473.13 660.57 479.07 663.22 484.6 664.83 490.2 664.61 495.48 662.46 500.5 658.78 505.74 653.23 510.86 646.05 515.97 637.72 521.49 628.27 527.18 618.05 533.15 607.47 539.75 596.65 546.81 585.88 554.41 575.39 562.78 565.24 571.77 555.55 581.39 546.42 591.71 537.77 602.57 529.57 613.83 521.91 625.44 514.56 637.13 507.42 648.62 500.65 659.83 493.91 670.34 487.11 679.81 480.5 688.23 473.7 695.09 466.63 700.1 459.63 703.5 452.29 704.77 444.6 703.84 436.91 701.25 428.83 696.63 420.38 690.16 411.92 682.72 403.09 674.09 393.9 664.68 384.72 655.52 375.41 646.67 366.05 638.54 356.71 631.76 347.34 626.2 337.99 622 328.71 619.59 319.48 618.52 310.39 618.67 301.4 620.31 292.59 622.75 284.04 625.7 275.65 629.4 267.58 633.04 259.9 636.31 252.43 639.55 245.39 641.95 238.84 643.33 229.6 643.84 213.83 637.16 207.16 630.01 202.83 624.04 198.79 617.01 194.98 609.07 190.93 600.55 186.95 591.33 182.99 581.58 178.63 571.49 174.2 561.06 169.7 550.43 164.79 539.66 159.86 528.82 155 518 149.94 507.17 145.15 496.42 140.75 485.83 136.5 475.27 132.9 464.89 130.06 454.71 127.68 444.57 126.19 434.62 125.65 424.91 125.6 415.21 126.4 405.72 128 396.45 129.78 387.19 132.03 378.35 134.59 369.93 136.9 361.5 139.28 353.46 141.66 345.83 143.54 338.16 145.38 330.87 147.18 323.94 148.58 316.95 150.09 310.3 151.81 303.96 153.42 297.51 155.47 291.32 158.03 285.36 160.8 279.21 164.25 273.22 168.4 267.35 172.95 261.2 178.24 255.08 184.21 248.97 190.57 242.49 197.54 235.94 205.02 229.3 212.74 222.26 220.84 215.11 229.23 207.86 237.69 200.26 246.32 192.62 255.06 184.98 263.73 177.18 272.46 169.51 281.21 162.11 289.83 154.8 298.47 147.93 307.15 141.66 315.69 135.78 324.29 130.69 332.98 126.51 341.56 122.95 350.27 120.42 359.13 118.99 367.93 118.23 376.92 118.55 386.11 119.92 395.28 121.78 404.68 124.5 414.31 127.98" stroke-dasharray="27 9" transform="rotate(63.04, 400, 400)" opacity="0.70"></path><path d="M416.48 142.89C425.63 146.41 434.67 150.29 443.58 154.37 452.47 158.14 461.2 161.9 469.72 165.55 478.17 168.65 486.35 171.55 494.18 174.23 501.88 176.3 509.15 178.19 515.91 179.94 525.44 181.8 541.02 185.37 546.97 187.54 552.04 190.01 559.88 197.56 563.4 202.86 566.26 206.85 569.41 211.45 573.04 216.62 577.64 222.09 583 228.11 589.21 234.62 596.51 241.4 604.63 248.62 613.43 256.22 622.87 264.02 632.5 272.14 641.94 280.49 651.02 288.99 659.12 297.66 665.79 306.45 671.03 315.32 674.23 324.26 675.18 333.2 674.32 342.19 671.32 351.14 666.41 360 660.51 368.89 653.61 377.65 646.28 386.25 639.66 394.86 633.88 403.07 629.36 410.89 626.69 418.69 625.58 426.1 625.95 433.1 628 440.1 630.96 446.73 634.42 452.98 638.43 459.28 642.05 465.27 644.85 470.98 647.01 476.82 647.72 482.48 646.85 488.03 644.72 493.83 640.9 499.65 635.52 505.56 629.02 511.89 621.27 518.46 612.56 525.35 603.27 532.8 593.44 540.69 583.35 549.05 573.23 558.01 563.17 567.47 553.3 577.38 543.76 587.77 534.54 598.48 525.67 609.35 517.21 620.35 509.07 631.2 501.18 641.67 493.64 651.71 486.25 660.93 478.94 669.05 471.85 676.14 464.72 681.73 457.49 685.6 450.36 688.03 443.06 688.56 435.54 687.14 428.05 684.32 420.31 679.73 412.3 673.54 404.29 666.54 396.01 658.51 387.47 649.77 378.92 641.26 370.34 632.97 361.74 625.25 353.17 618.67 344.63 613.1 336.17 608.68 327.76 605.79 319.48 604.07 311.37 603.43 303.37 604.16 295.59 605.66 288.11 607.72 280.76 610.58 273.75 613.54 267.13 616.34 257.64 620.48 240.99 624.69 233.8 624.01 227.04 621.27 214.83 609.26 209.03 600.3 204.91 593.48 200.79 585.91 196.64 577.72 192.09 569.16 187.46 560.15 182.79 550.81 177.76 541.26 172.77 531.52 167.89 521.68 162.9 511.76 158.22 501.82 153.98 491.94 149.95 482.04 146.57 472.24 143.96 462.58 141.81 452.94 140.52 443.45 140.15 434.15 140.24 424.86 141.15 415.75 142.81 406.85 144.64 397.95 146.94 389.44 149.53 381.33 151.9 373.2 154.34 365.43 156.78 358.03 158.75 350.58 160.67 343.46 162.52 336.66 163.95 329.77 165.43 323.16 167.05 316.79 168.48 310.3 170.25 303.99 172.42 297.85 174.71 291.51 177.58 285.26 181.06 279.07 184.86 272.62 189.35 266.16 194.49 259.68 200.01 252.87 206.14 245.99 212.83 239.04 219.81 231.76 227.24 224.41 235.03 217.01 242.99 209.37 251.2 201.75 259.6 194.22 268.04 186.62 276.59 179.24 285.22 172.18 293.8 165.29 302.43 158.9 311.09 153.13 319.67 147.77 328.3 143.2 336.97 139.51 345.56 136.42 354.23 134.31 362.98 133.22 371.68 132.76 380.49 133.28 389.4 134.78 398.3 136.71 407.33 139.45 416.47 142.88" stroke-dasharray="33 39" transform="rotate(70.92, 400, 400)" opacity="0.66"></path><path d="M414.86 157.8C423.43 161.26 431.8 165.06 439.94 169.06 448.06 172.8 455.91 176.56 463.46 180.24 470.95 183.44 478.09 186.47 484.83 189.31 491.45 191.59 497.62 193.7 503.3 195.66 511.33 197.85 524.56 201.74 529.86 203.85 534.79 206.03 543.84 212.34 548.68 216.71 552.57 219.95 556.86 223.72 561.69 228.01 567.39 232.51 573.76 237.52 580.81 243.01 588.67 248.71 597.07 254.85 605.83 261.38 614.9 268.08 623.86 275.12 632.37 282.43 640.32 289.88 647.2 297.54 652.63 305.37 656.72 313.28 658.95 321.3 659.2 329.38 657.92 337.51 654.8 345.66 650.07 353.77 644.56 361.91 638.21 369.98 631.48 377.96 625.35 385.94 619.9 393.63 615.49 401 612.64 408.37 611.11 415.45 610.86 422.22 612.12 429.01 614.27 435.54 616.97 441.83 620.36 448.18 623.59 454.34 626.32 460.37 628.73 466.54 630.05 472.65 630.13 478.76 629.25 485.13 626.92 491.61 623.19 498.25 618.43 505.26 612.43 512.55 605.39 520.14 597.64 528.2 589.17 536.62 580.19 545.42 570.96 554.66 561.52 564.24 552.04 574.11 542.64 584.24 533.36 594.49 524.29 604.72 515.46 614.88 506.87 624.73 498.51 634.05 490.42 642.84 482.51 650.76 474.75 657.57 467.19 663.39 459.7 667.8 452.24 670.64 444.89 672.22 437.5 672.12 430.03 670.31 422.61 667.32 415.06 662.82 407.38 656.93 399.71 650.39 391.88 642.94 383.91 634.86 375.94 626.98 368.02 619.25 360.17 611.96 352.34 605.62 344.62 600.11 337.03 595.53 329.49 592.26 322.13 589.99 315 588.67 307.93 588.57 301.13 589.2 294.63 590.38 288.23 592.39 282.15 594.59 276.44 596.79 268.19 600.36 253.53 604.87 247.04 605.07 240.72 603.73 228.72 595.53 222.75 588.79 218.46 583.53 214.14 577.52 209.76 570.86 205.02 563.83 200.22 556.29 195.4 548.32 190.32 540.12 185.32 531.62 180.5 522.92 175.64 514.09 171.14 505.14 167.11 496.14 163.34 487.09 160.23 478.05 157.87 469.06 155.97 460.07 154.89 451.16 154.68 442.37 154.91 433.59 155.91 424.93 157.62 416.42 159.49 407.91 161.81 399.73 164.42 391.89 166.82 384.04 169.32 376.49 171.82 369.24 173.88 361.94 175.88 354.91 177.81 348.13 179.31 341.27 180.83 334.61 182.41 328.13 183.75 321.52 185.32 315.04 187.21 308.66 189.11 302.09 191.49 295.58 194.37 289.08 197.5 282.35 201.22 275.6 205.54 268.81 210.19 261.76 215.44 254.66 221.24 247.5 227.35 240.12 233.95 232.71 240.96 225.31 248.18 217.77 255.74 210.31 263.55 203.02 271.48 195.74 279.6 188.75 287.84 182.14 296.11 175.75 304.48 169.89 312.9 164.67 321.3 159.87 329.75 155.84 338.22 152.66 346.66 150.04 355.14 148.33 363.64 147.57 372.12 147.38 380.64 148.09 389.18 149.69 397.71 151.69 406.28 154.41 414.85 157.79" stroke-dasharray="9 24" transform="rotate(78.80000000000001, 400, 400)" opacity="0.62"></path><path d="M409.82 172.7C417.77 176.08 425.44 179.79 432.83 183.7 440.19 187.38 447.24 191.11 453.94 194.8 460.6 198.06 466.88 201.2 472.76 204.18 481.27 207.82 496.06 213.7 502.38 216.14 508.34 218.1 519.1 222.37 524.34 225 530.21 227.9 544.05 235.8 552.52 240.91 559.04 244.6 566.06 248.75 573.57 253.33 581.6 258.08 589.9 263.24 598.29 268.77 606.71 274.45 614.78 280.47 622.22 286.79 629 293.22 634.65 299.89 638.93 306.78 641.98 313.73 643.37 320.85 643.03 328.08 641.43 335.35 638.27 342.7 633.76 350.09 628.66 357.5 622.83 364.92 616.67 372.33 611.03 379.74 605.92 386.95 601.65 393.96 598.69 400.97 596.82 407.79 596.03 414.43 596.59 421.09 597.97 427.61 599.92 433.99 602.61 440.45 605.34 446.84 607.81 453.19 610.21 459.69 611.85 466.23 612.55 472.84 612.59 479.68 611.45 486.68 609.11 493.87 605.91 501.37 601.56 509.13 596.17 517.15 590.07 525.51 583.15 534.16 575.57 543.07 567.6 552.25 559.22 561.63 550.59 571.13 541.85 580.72 533.04 590.27 524.25 599.63 515.55 608.78 506.96 617.51 498.52 625.61 490.24 633.13 482.11 639.77 474.14 645.32 466.31 649.96 458.6 653.31 450.99 655.24 443.47 656.09 436.01 655.46 428.57 653.36 421.18 650.29 413.78 645.91 406.37 640.35 398.96 634.27 391.52 627.39 384.05 619.96 376.57 612.68 369.24 605.51 362.06 598.66 354.89 592.6 347.9 587.19 341.11 582.54 334.34 579 327.79 576.28 321.49 574.37 312.24 573.46 295.24 575.61 287.53 577.85 280.15 580.63 266.75 584.74 260.58 585.39 254.38 584.96 242.13 579.65 235.86 574.75 231.36 570.84 226.82 566.21 222.23 560.95 217.33 555.36 212.41 549.21 207.53 542.6 202.46 535.76 197.54 528.55 192.85 521.04 188.2 513.39 183.94 505.53 180.19 497.52 176.72 489.44 173.9 481.28 171.81 473.08 170.17 464.85 169.31 456.62 169.26 448.43 169.61 440.24 170.68 432.09 172.42 424.01 174.32 415.93 176.64 408.11 179.24 400.54 181.67 392.96 184.2 385.61 186.75 378.49 188.9 371.32 191 364.35 193.02 357.56 194.63 350.69 196.21 343.96 197.82 337.35 199.14 330.62 200.62 323.97 202.31 317.38 203.94 310.63 205.94 303.89 208.34 297.16 210.88 290.24 213.93 283.29 217.49 276.32 221.32 269.16 225.7 261.97 230.59 254.77 235.77 247.43 241.43 240.11 247.54 232.86 253.88 225.57 260.59 218.42 267.61 211.49 274.79 204.66 282.22 198.16 289.83 192.08 297.53 186.26 305.37 180.99 313.29 176.35 321.26 172.13 329.29 168.65 337.34 165.97 345.42 163.8 353.51 162.48 361.59 162.04 369.68 162.09 377.76 162.97 385.8 164.66 393.85 166.69 401.87 169.39 409.81 172.7" stroke-dasharray="23 8" transform="rotate(86.68, 400, 400)" opacity="0.58"></path><path d="M402.53 187.61C409.82 190.89 416.83 194.48 423.53 198.27 430.21 201.88 436.58 205.56 442.62 209.22 448.63 212.52 454.29 215.73 459.61 218.83 467.38 222.73 481.28 229.28 487.54 232.06 493.74 234.32 505.89 238.84 512.24 241.38 516.9 243.04 521.79 244.99 526.97 247.25 532.68 249.51 538.75 252.14 545.22 255.14 552.19 258.21 559.49 261.67 567.05 265.51 574.89 269.45 582.76 273.78 590.48 278.46 598.04 283.24 605.08 288.36 611.38 293.78 616.98 299.27 621.48 305.05 624.69 311.05 626.81 317.12 627.49 323.38 626.69 329.82 624.86 336.28 621.73 342.88 617.48 349.6 612.78 356.32 607.47 363.14 601.86 370.02 596.69 376.91 591.94 383.7 587.84 390.39 584.83 397.09 582.7 403.7 581.47 410.23 581.4 416.8 582.07 423.31 583.3 429.79 585.28 436.35 587.41 442.93 589.47 449.54 591.66 456.28 593.35 463.12 594.38 470.07 595.01 477.22 594.72 484.54 593.47 492.03 591.56 499.76 588.64 507.7 584.77 515.84 580.26 524.21 574.91 532.75 568.85 541.44 562.34 550.27 555.3 559.16 547.85 568.02 540.17 576.84 532.26 585.48 524.21 593.82 516.11 601.86 507.98 609.38 499.88 616.24 491.84 622.52 483.87 627.93 476.01 632.31 468.23 635.88 460.55 638.28 452.98 639.42 445.49 639.65 438.08 638.61 430.76 636.3 423.49 633.21 416.27 629 409.12 623.79 401.98 618.17 394.88 611.86 387.84 605.05 380.8 598.37 373.97 591.74 367.36 585.35 360.75 579.6 354.36 574.35 348.21 569.7 342.06 565.97 336.16 562.91 330.51 560.53 322.18 558.63 306.81 558.49 299.77 559.64 292.89 561.5 280.02 564.66 273.87 565.36 267.55 565.4 254.76 562.05 248.15 558.56 243.45 555.72 238.72 552.24 233.97 548.16 228.99 543.83 224.05 538.94 219.19 533.58 214.23 528.01 209.47 522.02 204.99 515.68 200.62 509.21 196.67 502.45 193.23 495.47 190.1 488.41 187.6 481.18 185.81 473.82 184.42 466.44 183.78 458.96 183.88 451.42 184.34 443.88 185.48 436.3 187.23 428.71 189.13 421.11 191.43 413.68 194.01 406.41 196.44 399.14 198.99 392.01 201.57 385.03 203.8 378.02 205.99 371.13 208.11 364.35 209.84 357.51 211.53 350.75 213.21 344.06 214.58 337.28 216.05 330.53 217.65 323.81 219.12 316.96 220.85 310.12 222.89 303.27 224.98 296.3 227.48 289.3 230.4 282.3 233.5 275.18 237.07 268.07 241.11 261 245.38 253.86 250.11 246.79 255.27 239.86 260.65 232.95 266.41 226.24 272.51 219.8 278.78 213.51 285.34 207.58 292.12 202.1 299.03 196.91 306.11 192.26 313.33 188.22 320.62 184.59 328 181.65 335.43 179.46 342.91 177.74 350.41 176.79 357.91 176.63 365.43 176.91 372.93 177.93 380.38 179.69 387.84 181.74 395.23 184.4 402.52 187.61" stroke-dasharray="52 52" transform="rotate(94.56, 400, 400)" opacity="0.54"></path><path d="M394.65 202.52C401.3 205.68 407.69 209.14 413.81 212.79 419.93 216.3 425.77 219.89 431.33 223.5 436.89 226.81 442.18 230.06 447.2 233.23 454.64 237.36 468.52 244.52 475.13 247.64 481.87 250.24 495.73 255.24 503.13 257.84 508.47 259.48 514.04 261.34 519.86 263.43 526.08 265.46 532.57 267.78 539.31 270.4 546.36 273.03 553.56 275.99 560.81 279.27 568.13 282.6 575.3 286.26 582.14 290.26 588.69 294.3 594.63 298.66 599.78 303.32 605.96 310.53 611.32 326.3 610.21 334.78 608.24 340.52 605.2 346.45 601.24 352.55 596.94 358.65 592.13 364.92 587.05 371.33 582.35 377.73 577.95 384.14 574.05 390.53 571.04 396.94 568.73 403.34 567.14 409.75 566.56 416.19 566.6 422.66 567.15 429.16 568.43 435.74 569.93 442.39 571.48 449.12 573.29 455.96 574.81 462.92 575.91 470 576.82 477.23 577.06 484.61 576.57 492.14 575.62 499.81 573.84 507.64 571.25 515.59 568.14 523.66 564.25 531.81 559.66 540 554.64 548.2 549.04 556.36 542.95 564.36 536.57 572.24 529.84 579.84 522.85 587.05 515.71 593.92 508.42 600.24 501.05 605.88 493.64 610.97 486.21 615.23 478.81 618.55 471.42 621.16 464.09 622.74 456.83 623.23 449.61 622.96 442.47 621.6 435.43 619.17 428.41 616.11 421.47 612.12 414.64 607.27 407.81 602.11 401.07 596.35 394.43 590.14 387.79 584.05 381.39 577.96 375.24 572.03 369.08 566.62 363.16 561.58 357.48 557 349.07 551.52 333.4 544.41 326.12 542.63 318.99 542.21 305.55 543.16 299.16 543.98 292.66 544.98 279.77 545.55 273.24 544.76 266.36 543.29 252.21 537.4 244.98 532.96 240.03 529.63 235.15 525.79 230.42 521.49 225.68 517.03 221.17 512.14 216.99 506.87 212.96 501.49 209.37 495.78 206.3 489.78 203.53 483.72 201.37 477.42 199.86 470.91 198.74 464.38 198.3 457.67 198.54 450.83 199.11 443.98 200.29 437.02 202.04 429.95 203.93 422.88 206.18 415.88 208.71 408.97 211.13 402.05 213.66 395.2 216.25 388.43 218.55 381.63 220.82 374.89 223.04 368.2 224.9 361.47 226.71 354.78 228.49 348.11 229.97 341.38 231.49 334.65 233.08 327.93 234.49 321.14 236.09 314.34 237.9 307.54 239.68 300.67 241.77 293.8 244.19 286.95 246.7 280.05 249.61 273.19 252.91 266.42 256.36 259.64 260.23 252.99 264.48 246.51 268.92 240.11 273.72 233.96 278.86 228.11 284.16 222.44 289.76 217.16 295.61 212.33 301.59 207.79 307.78 203.77 314.14 200.35 320.58 197.3 327.15 194.9 333.81 193.18 340.52 191.87 347.29 191.26 354.07 191.36 360.89 191.83 367.7 192.98 374.48 194.77 381.26 196.82 388 199.41 394.64 202.52" stroke-dasharray="8 29" transform="rotate(102.44, 400, 400)" opacity="0.51"></path><path d="M388 217.43C394.04 220.46 399.89 223.76 405.54 227.25 411.19 230.63 416.64 234.11 421.9 237.63 429.72 242.54 444.57 251.66 451.71 255.8 461.43 260.24 471.04 264.5 480.79 268.71 491.44 271.94 502.72 275.57 514.69 279.78 527.66 283.6 541.09 288.38 554.37 294.21 567.32 300.02 578.69 307 587.36 315.11 592.01 321.37 595.19 335.23 593.61 342.78 591.59 347.9 588.69 353.24 585.03 358.8 581.13 364.35 576.81 370.12 572.24 376.08 567.99 382.05 563.95 388.08 560.27 394.16 557.32 400.26 554.9 406.42 553.05 412.64 552.03 418.89 551.54 425.22 551.49 431.63 552.11 438.1 552.98 444.66 553.97 451.33 556.83 464.89 558.7 478.96 558.78 493.43 557.81 508.2 554.15 523.24 547.93 538.16 540.25 552.83 530.43 566.73 519.1 579.14 507.03 590.16 494.11 598.7 480.85 604.06 474.16 605.85 467.46 606.73 460.77 606.68 454.08 606.02 447.43 604.45 440.84 601.97 434.26 599 427.74 595.25 421.31 590.78 414.89 586.08 408.54 580.85 402.3 575.23 396.05 569.71 390.04 564.15 384.26 558.69 378.47 553.64 372.91 548.85 367.57 544.4 359.62 538.84 344.7 530.76 337.67 528.18 328.2 526.72 319.27 526.09 310.76 525.74 301.68 526.43 292.74 526.37 283.86 525.13 274.26 523.8 264.68 520.76 255.31 515.94 245.65 510.64 236.68 503.58 228.92 494.96 223.7 488.13 216.12 472.76 214 464.36 213.14 458.64 212.89 452.7 213.26 446.56 213.91 440.41 215.12 434.08 216.85 427.58 218.7 421.08 220.9 414.57 223.35 408.08 225.73 401.58 228.23 395.08 230.81 388.6 233.14 382.11 235.47 375.62 237.76 369.14 239.75 362.63 241.69 356.13 243.59 349.62 246.53 336.51 249.65 323.35 253.2 310.26 256.36 297.05 260.55 283.98 265.92 271.32 271.62 258.86 278.73 247.14 287.09 236.59 295.96 226.85 305.95 218.77 316.76 212.79 322.28 210.3 327.97 208.4 333.77 207.12 339.63 206.2 345.59 205.89 351.6 206.22 357.63 206.86 363.71 208.1 369.79 209.91 375.88 211.93 381.96 214.45 387.99 217.43" stroke-dasharray="38 40" transform="rotate(110.32000000000001, 400, 400)" opacity="0.47"></path><path d="M384.11 232.34C395.07 238.08 405.62 244.66 415.7 251.62 425.86 257.8 435.74 263.96 445.43 269.91 455.47 274.73 465.65 279.4 476.09 284 487.2 287.68 498.79 291.62 510.75 295.96 523.18 299.82 535.57 304.41 547.31 309.82 558.32 315.08 567.54 321.33 574.12 328.58 578.49 335.8 579.47 344.05 576.93 353.27 572.52 362.47 565.7 372.64 557.44 383.72 550.18 394.8 543.88 406.33 539.18 418.19 537.15 430.15 536.62 442.55 537.04 455.3 538.89 468.23 540.28 481.56 540.52 495.08 540.35 508.68 538.15 522.26 533.87 535.42 528.52 548.12 521.2 559.84 512.31 569.95 502.68 578.75 491.97 585.23 480.61 588.88 469.01 590.58 457.08 589.2 445.13 584.71 433.17 578.75 421.28 570.42 409.63 560.32 397.98 550.55 387.08 540.85 376.91 531.91 366.64 524.85 356.98 519.03 347.87 514.46 338.48 511.86 329.44 510.03 320.66 508.57 311.4 508.2 302.22 507.43 293.13 505.88 283.55 504.53 274.12 501.89 265.08 497.85 256.02 493.59 247.8 487.81 240.86 480.62 234.72 473.19 230.4 464.46 228.24 454.6 227.28 444.64 228.45 433.7 231.65 421.89 235.3 410.08 240 398.02 245.22 385.85 249.66 373.67 254.11 361.35 258.43 349 261.68 336.61 265 324.17 268.57 311.85 271.59 299.58 275.34 287.55 279.95 276.05 284.62 264.88 290.44 254.55 297.34 245.42 304.54 237.1 312.8 230.38 321.9 225.59 331.24 221.97 341.26 220.48 351.73 221.23 362.28 223.02 373.13 226.77 384.1 232.33" stroke-dasharray="12 22" transform="rotate(118.19999999999999, 400, 400)" opacity="0.43"></path><path d="M383.86 247.25C393.82 252.65 403.68 258.85 413.39 265.46 423.18 271.48 432.97 277.58 442.8 283.58 452.9 288.66 463.24 293.67 473.81 298.6 484.77 302.73 495.99 307.02 507.23 311.59 518.53 315.65 529.39 320.25 539.26 325.49 548.23 330.48 555.36 336.29 560.06 342.95 562.93 349.51 562.99 357 560.18 365.4 556.03 373.77 549.94 383.07 542.63 393.31 536.13 403.55 530.24 414.29 525.49 425.4 522.87 436.57 521.41 448.15 520.8 460.02 521.59 471.94 522.25 484.11 522.26 496.27 522.31 508.33 520.93 520.14 517.98 531.32 514.37 541.95 509.07 551.47 502.32 559.4 494.97 566.16 486.45 570.84 477.08 573.06 467.44 573.74 457.23 571.87 446.73 567.43 436.18 561.91 425.47 554.42 414.76 545.41 404.04 536.67 393.81 527.85 384.08 519.5 374.28 512.59 364.86 506.55 355.79 501.45 346.51 497.95 337.42 495.09 328.51 492.63 319.26 491.21 310.1 489.61 301.09 487.53 291.84 485.83 282.87 483.22 274.45 479.55 266.21 475.84 258.91 470.91 252.91 464.76 247.69 458.49 244.17 451.02 242.6 442.45 242.03 433.81 243.35 424.15 246.46 413.56 249.97 402.97 254.45 392 259.48 380.81 263.91 369.65 268.45 358.28 272.92 346.86 276.47 335.47 280.06 324.08 283.77 312.87 286.86 301.81 290.44 291.09 294.63 280.97 298.67 271.26 303.59 262.42 309.38 254.77 315.29 247.88 322.13 242.46 329.78 238.79 337.56 236.1 346.08 235.27 355.16 236.39 364.29 238.34 373.9 242 383.86 247.25" stroke-dasharray="42 41" transform="rotate(126.08, 400, 400)" opacity="0.39"></path><path d="M387.32 262.16C396.36 267.18 405.53 272.95 414.76 279.16 424.06 284.92 433.52 290.85 443.1 296.79 452.86 302.01 462.83 307.23 472.9 312.41 483.12 316.9 493.35 321.53 503.3 326.34 513.03 330.67 522.07 335.4 529.94 340.61 536.9 345.54 542.13 351.11 545.23 357.37 546.9 363.51 546.28 370.43 543.39 378.14 539.58 385.81 534.21 394.33 527.82 403.71 522.07 413.09 516.65 422.92 511.99 433.06 508.96 443.24 506.78 453.73 505.29 464.37 505.06 475 504.89 485.69 504.4 496.2 504.24 506.5 503.14 516.39 500.93 525.51 498.41 534.07 494.57 541.51 489.49 547.47 484 552.43 477.39 555.58 469.87 556.66 462.11 556.57 453.63 554.39 444.65 550.13 435.6 545.1 426.17 538.45 416.49 530.51 406.81 522.77 397.34 514.84 388.14 507.16 378.89 500.54 369.83 494.49 360.97 489.09 351.97 484.95 343.07 481.3 334.31 478 325.38 475.63 316.56 473.21 308 470.53 299.4 468.29 291.2 465.44 283.65 461.83 276.42 458.32 270.15 453.87 265.14 448.43 260.87 442.95 258.12 436.46 257.08 428.97 256.87 421.45 258.29 412.97 261.27 403.6 264.59 394.22 268.82 384.43 273.59 374.41 277.94 364.42 282.47 354.22 287.02 344 290.82 333.86 294.65 323.77 298.56 313.92 301.86 304.29 305.48 295.05 309.51 286.45 313.26 278.28 317.65 270.97 322.72 264.79 327.75 259.27 333.55 255.09 340.08 252.43 346.65 250.57 353.93 250.31 361.84 251.71 369.76 253.75 378.27 257.26 387.32 262.16" stroke-dasharray="34 37" transform="rotate(133.96, 400, 400)" opacity="0.35"></path><path d="M393.68 277.06C401.84 281.68 410.24 286.98 418.79 292.71 427.39 298.12 436.18 303.78 445.09 309.52 454.06 314.74 463.13 320.01 472.15 325.29 481.14 330.04 489.92 334.9 498.21 339.89 506.14 344.48 513.25 349.35 519.19 354.57 524.31 359.53 527.9 364.98 529.7 370.95 530.46 376.79 529.41 383.25 526.59 390.36 523.18 397.42 518.53 405.19 513.01 413.66 507.99 422.13 503.09 430.94 498.63 439.95 495.39 448.96 492.72 458.15 490.55 467.35 489.43 476.48 488.44 485.51 487.33 494.21 486.69 502.68 485.47 510.62 483.51 517.75 480.04 527.16 467.9 538.58 459.34 539.75 453.19 539.12 446.27 536.8 438.73 532.84 431.14 528.34 423 522.52 414.44 515.6 405.87 508.84 397.3 501.81 388.8 494.86 380.28 488.68 371.8 482.8 363.42 477.34 354.99 472.82 346.61 468.65 338.38 464.74 330.1 461.6 322.01 458.47 314.25 455.22 306.59 452.4 299.41 449.19 292.93 445.47 286.83 441.92 281.66 437.68 277.66 432.7 274.3 427.75 272.27 421.98 271.7 415.4 271.79 408.8 273.26 401.39 276.08 393.2 279.17 385.01 283.09 376.46 287.56 367.71 291.72 359 296.15 350.14 300.67 341.31 304.62 332.58 308.64 323.95 312.72 315.63 316.26 307.53 320.03 299.87 324.06 292.85 327.77 286.23 331.93 280.41 336.59 275.62 341.11 271.38 346.24 268.3 351.99 266.54 357.69 265.39 364.04 265.59 371 267.17 377.95 269.24 385.52 272.56 393.68 277.06" stroke-dasharray="30 44" transform="rotate(141.84, 400, 400)" opacity="0.32"></path><path d="M401.5 291.97C408.77 296.14 416.28 300.91 423.92 306.11 431.57 311.1 439.37 316.36 447.19 321.78 455 326.83 462.78 331.99 470.35 337.21 477.79 342.03 484.87 346.97 491.36 352.02 497.47 356.75 502.74 361.7 506.93 366.88 511.61 374.51 513.06 391.46 509.8 400.99 506.83 407.46 502.88 414.46 498.2 421.97 493.88 429.49 489.54 437.18 485.41 444.93 482.14 452.67 479.19 460.43 476.57 468.07 474.76 475.62 473.07 482.94 471.36 489.84 469.33 499.57 463.33 514.81 458.77 519.58 453.38 522.3 438.74 520.29 429.66 515.56 423.36 511.62 416.47 506.62 409.07 500.69 401.67 494.88 394.12 488.77 386.54 482.6 378.96 476.96 371.33 471.43 363.76 466.13 356.19 461.51 348.68 457.07 341.34 452.83 334.05 449.16 327 445.52 320.32 441.82 313.83 438.51 307.84 434.96 302.56 431.08 295.61 425.32 287.34 411.36 286.47 402.93 286.8 397.12 288.28 390.67 290.89 383.62 293.72 376.57 297.29 369.27 301.37 361.86 305.27 354.48 309.48 347.03 313.85 339.68 317.81 332.43 321.89 325.34 326.05 318.6 329.79 312.05 333.69 305.95 337.79 300.47 343.62 293.1 356.77 283.21 364.34 281.14 369.48 280.57 375.14 281.11 381.33 282.8 387.5 284.82 394.23 287.89 401.5 291.97" stroke-dasharray="20 38" transform="rotate(149.72, 400, 400)" opacity="0.28"></path><path d="M408.97 306.88C415.31 310.56 421.8 314.77 428.32 319.37 434.85 323.85 441.41 328.61 447.88 333.57 460.66 342.72 472.61 352.51 482.4 362.56 490.93 371.71 496.12 381.67 496.97 392.43 496.7 397.69 495.38 403.25 493.06 409.11 490.55 414.95 487.28 421.13 483.39 427.63 479.77 434.13 476.01 440.64 472.3 447.09 469.16 453.51 466.16 459.82 463.31 465.9 459.41 477.81 455.4 488.25 450.68 496.06 443.76 504.24 426.33 502.53 418.81 498.31 413.6 494.96 407.85 490.75 401.62 485.78 395.38 480.89 388.97 475.69 382.48 470.35 376.01 465.35 369.48 460.34 363 455.4 350.17 446.91 337.75 438.6 326.77 430.47 316.56 423.51 308.55 415.74 303.85 406.86 301.68 400.16 302.62 384.76 305.69 376.02 308.23 370.05 311.4 363.97 315.04 357.88 318.58 351.82 322.45 345.79 326.54 339.91 333.86 328.4 341.83 317.93 350.24 309.55 357.67 302.13 366.17 297.43 375.86 296.23 383.14 296.5 399.66 301.88 408.97 306.88" stroke-dasharray="31 13" transform="rotate(157.60000000000002, 400, 400)" opacity="0.24"></path><path d="M414.38 321.79C425.09 328.09 435.82 336.08 445.91 344.91 455.78 353.2 464.53 362.19 471.22 371.46 477.03 380.18 480.15 389.49 480.01 399.23 478.89 408.76 474.94 419.08 468.58 429.96 462.93 440.83 456.75 451.23 450.74 460.53 446.27 469.58 441.62 477.09 436.54 482.29 432.2 486.71 426.61 488.35 419.59 486.77 412.65 484.36 404 478.98 393.79 470.87 383.59 463 372.89 454.1 362.43 445.07 352.17 437.13 342.45 429.09 334.12 421.13 326.46 413.98 320.71 406.33 317.65 398.12 315.67 390.15 316.54 381.16 320.5 371.3 324.96 361.44 331.34 351.66 338.75 342.62 345.58 333.8 353.15 326.1 361.12 320.24 368.45 315.02 376.55 312.04 385.38 311.82 393.96 312.37 403.67 315.67 414.38 321.79" stroke-dasharray="17 29" transform="rotate(165.48, 400, 400)" opacity="0.20"></path><path d="M416.49 336.7C425.09 341.89 433.29 348.47 440.62 355.83 447.77 362.93 453.75 370.71 457.99 378.77 461.72 386.54 463.43 394.74 462.82 403.11 461.77 411.37 458.69 419.99 453.77 428.67 449.3 437.35 444.12 445.24 438.75 451.96 431.9 461.07 417.26 469.98 408.5 468.66 402.51 466.58 395.43 462.31 387.39 455.96 379.35 449.77 371.16 442.57 363.34 435.05 355.68 428.12 348.65 420.89 342.85 413.66 337.51 406.91 333.72 399.85 331.98 392.59 330.9 385.49 331.94 377.91 335.31 370.04 339.01 362.17 344.29 354.75 350.52 348.19 356.48 341.76 363.21 336.41 370.32 332.61 377.08 329.17 384.4 327.49 392.11 327.89 399.69 328.72 407.88 331.63 416.49 336.7" stroke-dasharray="18 2" transform="rotate(173.36, 400, 400)" opacity="0.16"></path><path d="M414.81 351.61C427.67 359.59 437.86 371.66 443.1 384.62 447.43 397.12 446.16 411.01 438.97 423.94 432.72 436.86 423.87 446.19 414.46 450.11 406.28 453.24 395.84 450.34 383.88 441.06 371.92 432.09 360.76 420.01 353.23 407.82 346.7 396.59 345.07 384.24 350.12 372.38 355.94 360.53 366.22 351.29 377.89 346.6 389.01 342.57 401.95 343.89 414.81 351.61" stroke-dasharray="6 20" transform="rotate(181.24, 400, 400)" opacity="0.13"></path><path d="M409.73 366.51C418.2 371.99 424.32 380.29 427.1 389.27 429.64 398.14 428.77 407.81 424.16 416.32 419.96 424.82 413.51 430.46 406.44 432.46 399.85 434.22 392.05 432.2 384.08 426.15 376.1 420.23 369.42 411.9 365.41 403.26 361.77 394.97 361.28 386.04 364.93 378.06 368.93 370.08 376 364.47 384.12 362.07 392.14 359.87 401.25 361.16 409.73 366.51" stroke-dasharray="56 34" transform="rotate(189.12, 400, 400)" opacity="0.09"></path></g></svg>